<?xml version="1.0" standalone="no"?>
<!DOCTYPE svg PUBLIC "-//W3C//DTD SVG 20010904//EN"
 "http://www.w3.org/TR/2001/REC-SVG-20010904/DTD/svg10.dtd">
<svg version="1.0" xmlns="http://www.w3.org/2000/svg"
 width="700.000000pt" height="700.000000pt" viewBox="0 0 700.000000 700.000000"
 preserveAspectRatio="xMidYMid meet">
<metadata>
Created by potrace 1.11, written by Peter Selinger 2001-2013
</metadata>
<g transform="translate(0.000000,700.000000) scale(0.100000,-0.100000)"
fill="#000000" stroke="none">
<path d="M2810 6890 l0 -30 100 0 100 0 0 30 0 30 -100 0 -100 0 0 -30z"/>
<path d="M3930 6890 l0 -30 100 0 100 0 0 30 0 30 -100 0 -100 0 0 -30z"/>
<path d="M2520 6820 c0 -28 2 -30 40 -30 38 0 40 2 40 30 0 28 -2 30 -40 30
-38 0 -40 -2 -40 -30z"/>
<path d="M4340 6820 c0 -28 3 -30 35 -30 32 0 35 2 35 30 0 28 -3 30 -35 30
-32 0 -35 -2 -35 -30z"/>
<path d="M6518 6783 c-67 -4 -68 -4 -68 -32 0 -28 -1 -29 -75 -36 -74 -7 -75
-7 -75 -35 0 -28 -2 -29 -64 -35 -64 -7 -65 -8 -68 -39 -3 -27 -7 -31 -35 -34
-28 -3 -32 -7 -35 -35 -3 -28 -7 -32 -35 -35 -28 -3 -32 -7 -35 -35 -3 -28 -7
-32 -35 -35 -28 -3 -32 -7 -35 -35 -3 -28 -7 -32 -35 -35 -28 -3 -32 -7 -35
-35 -3 -28 -7 -32 -35 -35 -31 -3 -32 -4 -38 -67 -7 -63 -8 -64 -39 -67 -27
-3 -31 -7 -34 -35 -3 -29 -7 -33 -32 -33 -26 0 -29 -4 -32 -37 -3 -34 -6 -38
-34 -41 -31 -3 -32 -4 -39 -68 -6 -62 -7 -64 -35 -64 -26 0 -29 -4 -32 -37 -3
-34 -6 -38 -35 -41 -31 -3 -31 -4 -38 -73 -7 -67 -8 -69 -35 -69 -27 0 -28 -2
-35 -70 -7 -68 -8 -70 -35 -70 -27 0 -28 -2 -35 -65 -6 -63 -7 -65 -35 -65
-27 0 -28 -2 -35 -70 -7 -68 -8 -70 -35 -70 -27 0 -28 -2 -35 -70 -7 -68 -8
-70 -35 -70 -27 0 -28 -2 -35 -70 -7 -68 -8 -70 -35 -70 -28 0 -28 -1 -35 -75
-7 -74 -8 -75 -35 -75 -27 0 -28 -2 -35 -70 -7 -68 -8 -70 -35 -70 -27 0 -28
-2 -35 -70 -7 -69 -7 -70 -36 -70 -28 0 -29 -2 -29 -47 0 -27 -3 -72 -6 -100
-6 -50 -9 -53 -35 -53 -27 0 -27 -1 -34 -75 -7 -73 -8 -75 -35 -75 -25 0 -28
-3 -34 -52 -3 -29 -6 -77 -6 -105 0 -52 0 -53 -30 -53 -29 0 -30 -1 -30 -47 0
-27 -3 -72 -6 -100 -6 -50 -9 -53 -34 -53 -27 0 -28 -2 -35 -75 -7 -74 -7 -75
-35 -75 -28 0 -29 -2 -35 -64 -7 -64 -8 -65 -39 -68 -27 -3 -31 -7 -34 -35 -3
-29 -7 -33 -32 -33 -27 0 -28 2 -35 60 -4 33 -4 96 0 140 7 79 7 80 35 80 25
0 28 3 34 53 3 28 6 73 6 100 0 45 1 47 29 47 29 0 29 1 36 70 7 68 8 70 35
70 26 0 27 3 34 61 8 80 8 709 -1 912 l-6 157 -27 0 -28 0 -7 140 -7 140 -29
0 c-28 0 -29 2 -29 48 0 26 -3 71 -6 100 -6 49 -9 52 -34 52 -27 0 -28 2 -35
75 -7 74 -7 75 -35 75 -28 0 -29 2 -35 65 -7 63 -8 65 -36 65 -25 0 -28 4 -31
38 -3 34 -6 37 -35 40 -31 3 -32 4 -38 67 -7 63 -8 64 -39 67 -27 3 -31 7 -34
35 -3 28 -7 32 -35 35 -28 3 -32 7 -35 34 -3 31 -4 32 -67 39 -63 6 -64 7 -67
38 -3 29 -6 32 -40 35 -34 3 -38 6 -38 31 0 27 -3 29 -52 35 -29 3 -74 6 -100
6 -46 0 -48 1 -48 29 0 27 -2 28 -61 35 -80 8 -461 8 -606 -1 l-113 -6 0 -29
c0 -26 -2 -28 -44 -28 -23 0 -71 -3 -105 -6 -58 -7 -61 -8 -61 -34 0 -25 -4
-28 -52 -34 -29 -3 -74 -6 -100 -6 -46 0 -48 -1 -48 -29 0 -29 -1 -29 -70 -36
-69 -7 -70 -8 -70 -35 0 -26 -4 -29 -37 -32 -34 -3 -38 -6 -41 -34 -3 -31 -4
-32 -68 -39 -62 -6 -64 -7 -64 -35 0 -26 -4 -29 -38 -32 -33 -3 -37 -6 -40
-34 -3 -31 -4 -32 -67 -39 -63 -6 -64 -7 -67 -38 -3 -28 -7 -32 -35 -35 -29
-3 -33 -7 -33 -32 0 -26 -4 -29 -37 -32 -35 -3 -38 -6 -41 -35 -3 -28 -7 -32
-35 -35 -28 -3 -32 -7 -35 -35 -3 -28 -7 -32 -35 -35 -28 -3 -32 -7 -35 -35
-3 -28 -7 -32 -35 -35 -28 -3 -32 -7 -35 -35 -3 -29 -7 -33 -32 -33 -26 0 -29
-4 -32 -37 -3 -35 -6 -38 -35 -41 -28 -3 -32 -7 -35 -35 -3 -28 -7 -32 -34
-35 -31 -3 -32 -4 -39 -68 -6 -62 -7 -64 -35 -64 -26 0 -29 -4 -32 -37 -3 -34
-6 -38 -35 -41 -31 -3 -31 -4 -38 -73 -7 -67 -8 -69 -35 -69 -27 0 -28 -2 -35
-70 -7 -68 -8 -70 -35 -70 -25 0 -28 -3 -34 -52 -3 -29 -6 -74 -6 -100 0 -46
-1 -48 -29 -48 -27 0 -28 -2 -35 -61 -3 -34 -6 -84 -6 -110 0 -48 -1 -49 -30
-49 l-30 0 0 -310 0 -310 29 0 29 0 7 -140 7 -140 28 0 c28 0 28 -1 35 -75 7
-74 8 -75 36 -75 28 0 29 -2 29 -47 0 -27 3 -72 6 -100 l7 -53 63 0 64 0 0 29
c0 27 3 30 38 33 33 3 37 6 40 34 3 31 4 32 68 39 62 6 64 7 64 35 0 27 2 28
69 35 69 7 70 7 73 38 3 29 7 32 41 35 33 3 37 6 37 32 0 28 2 29 64 35 64 7
65 8 68 39 3 28 7 31 41 34 35 3 37 5 37 38 l0 34 65 0 65 0 0 100 0 100 -29
0 c-27 0 -28 2 -35 61 -3 34 -6 82 -6 105 0 42 -1 44 -29 44 l-29 0 -7 145 -7
145 -29 0 -29 0 0 275 0 275 30 0 c29 0 30 1 30 49 0 26 3 76 6 110 7 58 8 61
34 61 27 0 28 2 35 70 7 68 8 70 35 70 28 0 29 2 35 64 7 64 8 65 39 68 27 3
31 7 34 35 3 31 4 32 67 38 63 7 64 8 67 39 3 28 7 31 41 34 33 3 37 6 37 31
0 27 3 29 53 35 28 3 76 6 105 6 51 0 52 0 52 30 l0 30 170 0 170 0 0 -30 c0
-30 1 -30 53 -30 28 0 76 -3 105 -6 49 -6 52 -9 52 -34 0 -27 2 -28 69 -35 69
-7 70 -7 73 -38 3 -28 7 -32 35 -35 28 -3 32 -7 35 -35 3 -28 7 -32 35 -35 28
-3 32 -7 35 -35 3 -28 7 -32 35 -35 31 -3 32 -4 38 -67 7 -63 8 -64 39 -67 28
-3 31 -7 34 -40 3 -34 6 -38 32 -38 27 0 28 -1 35 -70 7 -68 8 -70 35 -70 25
0 28 -3 34 -52 3 -29 6 -74 6 -100 0 -46 1 -48 29 -48 27 0 28 -2 35 -61 3
-34 6 -84 6 -110 0 -47 1 -49 29 -49 l29 0 7 -205 7 -205 28 0 27 0 7 -413 c4
-228 4 -543 0 -700 l-7 -287 -27 0 -28 0 -7 -145 -7 -145 -29 0 c-28 0 -29 -2
-29 -44 0 -23 -3 -71 -6 -105 -7 -58 -8 -61 -34 -61 -25 0 -28 -4 -34 -53 -3
-28 -6 -73 -6 -99 0 -46 -1 -48 -29 -48 -29 0 -29 -1 -36 -70 -7 -68 -8 -70
-35 -70 -27 0 -28 -1 -35 -75 -7 -74 -7 -75 -35 -75 -27 0 -28 -2 -35 -70 -7
-68 -8 -70 -35 -70 -27 0 -28 -2 -35 -70 -7 -68 -8 -70 -35 -70 -28 0 -29 -2
-35 -65 -7 -63 -8 -65 -36 -65 -25 0 -28 -4 -31 -37 -3 -34 -6 -38 -34 -41
-31 -3 -32 -4 -39 -68 -6 -62 -7 -64 -35 -64 -26 0 -29 -4 -32 -37 -3 -35 -6
-38 -35 -41 -28 -3 -32 -7 -35 -35 -3 -28 -7 -32 -35 -35 -31 -3 -32 -4 -38
-67 l-7 -63 -63 -7 c-63 -6 -64 -7 -67 -38 -3 -28 -7 -32 -35 -35 -29 -3 -33
-7 -33 -32 0 -27 -1 -28 -70 -35 -68 -7 -70 -8 -70 -35 0 -28 -1 -28 -75 -35
-73 -7 -75 -8 -75 -35 l0 -27 -97 -6 c-54 -4 -131 -7 -170 -7 l-73 0 0 -30 0
-30 -490 0 -490 0 0 30 0 30 -75 0 -75 0 0 -29 c0 -26 -4 -30 -32 -33 -30 -3
-33 -6 -36 -40 -3 -34 -6 -38 -32 -38 -27 0 -28 -1 -35 -70 -7 -69 -7 -70 -36
-70 -28 0 -29 -2 -29 -47 0 -27 -3 -72 -6 -100 -6 -50 -9 -53 -34 -53 -27 0
-28 -2 -35 -70 -7 -69 -7 -70 -36 -70 -26 0 -29 -3 -29 -35 l0 -35 1009 0
1010 0 3 33 c3 29 6 32 41 35 33 3 37 6 37 31 0 28 2 29 64 36 64 6 65 7 68
38 3 28 7 32 35 35 28 3 32 7 35 35 3 28 7 32 35 35 28 3 32 7 35 35 3 28 7
32 35 35 28 3 32 7 35 35 3 28 7 32 35 35 28 3 32 7 35 35 3 28 7 32 34 35 31
3 32 4 39 67 6 63 7 64 38 67 29 3 32 6 35 41 3 33 6 37 32 37 25 0 29 4 32
33 3 28 7 32 34 35 31 3 32 4 39 68 6 62 7 64 35 64 26 0 29 4 32 37 3 34 6
38 35 41 31 3 31 4 38 73 7 67 8 69 35 69 28 0 29 2 35 65 7 63 8 65 36 65 25
0 28 4 31 38 3 33 6 37 35 40 31 3 31 4 38 73 7 67 8 69 35 69 27 0 28 2 35
65 6 63 7 65 35 65 27 0 28 2 35 70 7 68 8 70 35 70 27 0 28 2 35 70 7 68 8
70 35 70 27 0 28 2 35 69 7 69 7 70 38 73 29 3 32 7 35 41 3 33 6 37 32 37 27
0 28 1 35 70 7 68 8 70 35 70 27 0 28 2 35 70 7 68 8 70 35 70 27 0 28 2 35
70 7 68 8 70 35 70 27 0 28 2 35 70 7 68 8 70 35 70 27 0 28 2 35 70 7 68 8
70 35 70 27 0 28 2 35 70 7 68 8 70 35 70 27 0 28 2 35 70 7 68 8 70 35 70 27
0 28 2 35 70 7 68 8 70 35 70 27 0 28 2 35 70 7 68 8 70 35 70 27 0 28 2 35
70 7 68 8 70 35 70 27 0 28 2 35 70 7 68 8 70 35 70 27 0 28 2 35 70 7 68 8
70 35 70 27 0 28 2 35 70 7 68 8 70 35 70 27 0 28 2 35 70 7 68 8 70 35 70 27
0 28 2 35 70 7 68 8 70 35 70 27 0 28 2 35 70 7 68 8 70 35 70 27 0 28 2 35
70 7 68 8 70 35 70 27 0 28 2 35 70 7 68 8 70 35 70 27 0 28 2 35 70 7 68 8
70 35 70 27 0 28 2 35 65 6 63 7 65 35 65 27 0 28 2 35 70 7 68 8 70 35 70 27
0 28 2 35 69 7 69 7 70 38 73 29 3 32 7 35 41 3 33 6 37 32 37 28 0 29 2 35
64 7 64 8 65 39 68 28 3 31 7 34 41 3 33 6 37 32 37 28 0 29 2 35 64 7 64 8
65 39 68 27 3 31 7 34 35 3 28 7 32 35 35 28 3 32 7 35 35 3 28 7 32 35 35 28
3 32 7 35 35 3 31 4 32 68 38 61 7 64 8 64 35 0 26 3 27 61 34 34 3 119 6 189
6 70 0 155 -3 189 -6 59 -7 61 -8 61 -35 0 -27 2 -29 44 -29 23 0 71 -3 105
-6 59 -7 61 -8 61 -35 0 -26 4 -29 30 -29 l30 0 0 525 0 525 -207 -2 c-115 -1
-238 -3 -275 -5z"/>
<path d="M2310 6750 c0 -28 3 -30 35 -30 32 0 35 2 35 30 0 28 -3 30 -35 30
-32 0 -35 -2 -35 -30z"/>
<path d="M4560 6750 c0 -27 3 -30 30 -30 27 0 30 3 30 30 0 27 -3 30 -30 30
-27 0 -30 -3 -30 -30z"/>
<path d="M2110 6680 c0 -27 3 -30 30 -30 27 0 30 3 30 30 0 27 -3 30 -30 30
-27 0 -30 -3 -30 -30z"/>
<path d="M4770 6680 c0 -27 3 -30 30 -30 27 0 30 3 30 30 0 27 -3 30 -30 30
-27 0 -30 -3 -30 -30z"/>
<path d="M1970 6610 c0 -27 3 -30 30 -30 27 0 30 3 30 30 0 27 -3 30 -30 30
-27 0 -30 -3 -30 -30z"/>
<path d="M4910 6610 c0 -27 3 -30 30 -30 27 0 30 3 30 30 0 27 -3 30 -30 30
-27 0 -30 -3 -30 -30z"/>
<path d="M1830 6540 c0 -27 3 -30 30 -30 27 0 30 3 30 30 0 27 -3 30 -30 30
-27 0 -30 -3 -30 -30z"/>
<path d="M1690 6470 c0 -27 3 -30 30 -30 27 0 30 3 30 30 0 27 -3 30 -30 30
-27 0 -30 -3 -30 -30z"/>
<path d="M5190 6470 c0 -27 3 -30 30 -30 27 0 30 3 30 30 0 27 -3 30 -30 30
-27 0 -30 -3 -30 -30z"/>
<path d="M1550 6400 c0 -27 3 -30 30 -30 27 0 30 3 30 30 0 27 -3 30 -30 30
-27 0 -30 -3 -30 -30z"/>
<path d="M1480 6330 c0 -27 3 -30 30 -30 27 0 30 3 30 30 0 27 -3 30 -30 30
-27 0 -30 -3 -30 -30z"/>
<path d="M1270 6190 c0 -27 3 -30 30 -30 27 0 30 3 30 30 0 27 -3 30 -30 30
-27 0 -30 -3 -30 -30z"/>
<path d="M1200 6120 c0 -27 3 -30 30 -30 27 0 30 3 30 30 0 27 -3 30 -30 30
-27 0 -30 -3 -30 -30z"/>
<path d="M1130 6050 c0 -27 3 -30 30 -30 27 0 30 3 30 30 0 27 -3 30 -30 30
-27 0 -30 -3 -30 -30z"/>
<path d="M920 5840 c0 -27 3 -30 30 -30 27 0 30 3 30 30 0 27 -3 30 -30 30
-27 0 -30 -3 -30 -30z"/>
<path d="M850 5770 c0 -27 3 -30 30 -30 27 0 30 3 30 30 0 27 -3 30 -30 30
-27 0 -30 -3 -30 -30z"/>
<path d="M780 5700 c0 -27 3 -30 30 -30 27 0 30 3 30 30 0 27 -3 30 -30 30
-27 0 -30 -3 -30 -30z"/>
<path d="M710 5630 c0 -27 3 -30 30 -30 27 0 30 3 30 30 0 27 -3 30 -30 30
-27 0 -30 -3 -30 -30z"/>
<path d="M570 5420 c0 -27 3 -30 30 -30 27 0 30 3 30 30 0 27 -3 30 -30 30
-27 0 -30 -3 -30 -30z"/>
<path d="M500 5280 c0 -27 3 -30 30 -30 27 0 30 3 30 30 0 27 -3 30 -30 30
-27 0 -30 -3 -30 -30z"/>
<path d="M290 4860 c0 -27 3 -30 30 -30 27 0 30 3 30 30 0 27 -3 30 -30 30
-27 0 -30 -3 -30 -30z"/>
<path d="M220 4715 c0 -32 2 -35 30 -35 28 0 30 3 30 35 0 32 -2 35 -30 35
-28 0 -30 -3 -30 -35z"/>
<path d="M150 4475 l0 -65 30 0 30 0 0 65 0 65 -30 0 -30 0 0 -65z"/>
<path d="M80 4190 l0 -70 30 0 30 0 0 70 0 70 -30 0 -30 0 0 -70z"/>
<path d="M6800 4160 c0 -27 3 -30 30 -30 27 0 30 3 30 30 0 27 -3 30 -30 30
-27 0 -30 -3 -30 -30z"/>
<path d="M0 3495 l0 -145 35 0 35 0 0 145 0 145 -35 0 -35 0 0 -145z"/>
<path d="M80 2795 l0 -65 30 0 30 0 0 65 0 65 -30 0 -30 0 0 -65z"/>
<path d="M150 2485 c0 -32 2 -35 30 -35 28 0 30 3 30 35 0 32 -2 35 -30 35
-28 0 -30 -3 -30 -35z"/>
<path d="M220 2270 c0 -27 3 -30 30 -30 27 0 30 3 30 30 0 27 -3 30 -30 30
-27 0 -30 -3 -30 -30z"/>
<path d="M570 1570 c0 -27 3 -30 30 -30 27 0 30 3 30 30 0 27 -3 30 -30 30
-27 0 -30 -3 -30 -30z"/>
</g>
</svg>
