<?xml version="1.0" encoding="UTF-8" standalone="no"?>
<!DOCTYPE svg PUBLIC "-//W3C//DTD SVG 1.1//EN"
 "http://www.w3.org/Graphics/SVG/1.1/DTD/svg11.dtd">
<!-- Generated by graphviz version 2.40.1 (20161225.0304)
 -->
<!-- Title: G Pages: 1 -->
<svg width="1149pt" height="99pt"
 viewBox="0.00 0.00 1149.12 99.00" xmlns="http://www.w3.org/2000/svg" xmlns:xlink="http://www.w3.org/1999/xlink">
<g id="graph0" class="graph" transform="scale(1 1) rotate(0) translate(4 95)">
<title>G</title>
<polygon fill="#ffffff" stroke="transparent" points="-4,4 -4,-95 1145.1211,-95 1145.1211,4 -4,4"/>
<g id="clust1" class="cluster">
<title>cluster_compiler</title>
<polygon fill="none" stroke="#000000" points="168.3875,-8 168.3875,-83 739.5479,-83 739.5479,-8 168.3875,-8"/>
<text text-anchor="middle" x="453.9677" y="-67.8" font-family="Times,serif" font-size="14.00" fill="#000000">Compiler</text>
</g>
<!-- src_code -->
<g id="node1" class="node">
<title>src_code</title>
<ellipse fill="none" stroke="#000000" cx="70.1938" cy="-34" rx="70.3881" ry="18"/>
<text text-anchor="middle" x="70.1938" y="-30.3" font-family="Times,serif" font-size="14.00" fill="#000000">Source Code</text>
</g>
<!-- lexer -->
<g id="node2" class="node">
<title>lexer</title>
<ellipse fill="none" stroke="#000000" cx="214.0842" cy="-34" rx="37.8943" ry="18"/>
<text text-anchor="middle" x="214.0842" y="-30.3" font-family="Times,serif" font-size="14.00" fill="#000000">Lexer</text>
</g>
<!-- src_code&#45;&gt;lexer -->
<g id="edge1" class="edge">
<title>src_code&#45;&gt;lexer</title>
<path fill="none" stroke="#000000" d="M140.4529,-34C149.0805,-34 157.7405,-34 165.9361,-34"/>
<polygon fill="#000000" stroke="#000000" points="166.0316,-37.5001 176.0316,-34 166.0316,-30.5001 166.0316,-37.5001"/>
</g>
<!-- parser -->
<g id="node7" class="node">
<title>parser</title>
<ellipse fill="none" stroke="#000000" cx="328.7272" cy="-34" rx="40.8928" ry="18"/>
<text text-anchor="middle" x="328.7272" y="-30.3" font-family="Times,serif" font-size="14.00" fill="#000000">Parser</text>
</g>
<!-- lexer&#45;&gt;parser -->
<g id="edge5" class="edge">
<title>lexer&#45;&gt;parser</title>
<path fill="none" stroke="#000000" d="M251.9403,-34C260.1907,-34 269.0517,-34 277.7178,-34"/>
<polygon fill="#000000" stroke="#000000" points="277.7533,-37.5001 287.7533,-34 277.7532,-30.5001 277.7533,-37.5001"/>
</g>
<!-- assembler -->
<g id="node3" class="node">
<title>assembler</title>
<ellipse fill="none" stroke="#000000" cx="671.7532" cy="-34" rx="59.5901" ry="18"/>
<text text-anchor="middle" x="671.7532" y="-30.3" font-family="Times,serif" font-size="14.00" fill="#000000">Assembler</text>
</g>
<!-- object_files -->
<g id="node4" class="node">
<title>object_files</title>
<ellipse fill="none" stroke="#000000" cx="835.1419" cy="-34" rx="67.6881" ry="18"/>
<text text-anchor="middle" x="835.1419" y="-30.3" font-family="Times,serif" font-size="14.00" fill="#000000">Object Files</text>
</g>
<!-- assembler&#45;&gt;object_files -->
<g id="edge2" class="edge">
<title>assembler&#45;&gt;object_files</title>
<path fill="none" stroke="#000000" d="M731.6653,-34C740.0443,-34 748.7532,-34 757.4027,-34"/>
<polygon fill="#000000" stroke="#000000" points="757.506,-37.5001 767.506,-34 757.506,-30.5001 757.506,-37.5001"/>
</g>
<!-- linker -->
<g id="node5" class="node">
<title>linker</title>
<ellipse fill="none" stroke="#000000" cx="980.3322" cy="-34" rx="41.6928" ry="18"/>
<text text-anchor="middle" x="980.3322" y="-30.3" font-family="Times,serif" font-size="14.00" fill="#000000">Linker</text>
</g>
<!-- object_files&#45;&gt;linker -->
<g id="edge3" class="edge">
<title>object_files&#45;&gt;linker</title>
<path fill="none" stroke="#000000" d="M903.0609,-34C911.5714,-34 920.1679,-34 928.38,-34"/>
<polygon fill="#000000" stroke="#000000" points="928.5411,-37.5001 938.541,-34 928.541,-30.5001 928.5411,-37.5001"/>
</g>
<!-- binary -->
<g id="node6" class="node">
<title>binary</title>
<ellipse fill="none" stroke="#000000" cx="1099.5248" cy="-34" rx="41.6928" ry="18"/>
<text text-anchor="middle" x="1099.5248" y="-30.3" font-family="Times,serif" font-size="14.00" fill="#000000">Binary</text>
</g>
<!-- linker&#45;&gt;binary -->
<g id="edge4" class="edge">
<title>linker&#45;&gt;binary</title>
<path fill="none" stroke="#000000" d="M1022.02,-34C1030.229,-34 1038.9378,-34 1047.4393,-34"/>
<polygon fill="#000000" stroke="#000000" points="1047.6591,-37.5001 1057.6591,-34 1047.659,-30.5001 1047.6591,-37.5001"/>
</g>
<!-- code_generator -->
<g id="node8" class="node">
<title>code_generator</title>
<ellipse fill="none" stroke="#000000" cx="490.816" cy="-34" rx="85.2851" ry="18"/>
<text text-anchor="middle" x="490.816" y="-30.3" font-family="Times,serif" font-size="14.00" fill="#000000">Code Generator</text>
</g>
<!-- parser&#45;&gt;code_generator -->
<g id="edge6" class="edge">
<title>parser&#45;&gt;code_generator</title>
<path fill="none" stroke="#000000" d="M370.0485,-34C377.9536,-34 386.5286,-34 395.3388,-34"/>
<polygon fill="#000000" stroke="#000000" points="395.3625,-37.5001 405.3625,-34 395.3624,-30.5001 395.3625,-37.5001"/>
</g>
<!-- code_generator&#45;&gt;assembler -->
<g id="edge7" class="edge">
<title>code_generator&#45;&gt;assembler</title>
<path fill="none" stroke="#000000" d="M575.9864,-34C584.5881,-34 593.2538,-34 601.6711,-34"/>
<polygon fill="#000000" stroke="#000000" points="601.7943,-37.5001 611.7943,-34 601.7943,-30.5001 601.7943,-37.5001"/>
</g>
</g>
</svg>
